<?xml version="1.0" standalone="no"?>
<!DOCTYPE svg PUBLIC "-//W3C//DTD SVG 20010904//EN"
 "http://www.w3.org/TR/2001/REC-SVG-20010904/DTD/svg10.dtd">
<svg version="1.0" xmlns="http://www.w3.org/2000/svg"
 width="512.000000pt" height="512.000000pt" viewBox="0 0 512.000000 512.000000"
 preserveAspectRatio="xMidYMid meet">
<metadata>
Created by potrace 1.11, written by Peter Selinger 2001-2013
</metadata>
<g transform="translate(0.000000,512.000000) scale(0.100000,-0.100000)"
fill="#000000" stroke="none">
<path d="M1680 4942 c-35 -23 -174 -124 -180 -131 -3 -4 -25 -22 -50 -41 -180
-139 -435 -425 -575 -645 -157 -247 -292 -571 -341 -820 -2 -11 -6 -31 -9 -45
-30 -148 -39 -242 -39 -440 -1 -268 3 -320 49 -555 39 -206 156 -505 278 -715
124 -214 252 -379 443 -574 80 -81 216 -197 324 -277 78 -58 247 -169 256
-169 3 0 19 -9 35 -20 35 -25 260 -138 349 -175 148 -61 371 -134 488 -160 9
-2 58 -13 107 -24 50 -11 140 -27 200 -35 61 -8 128 -18 150 -21 57 -8 481
-19 475 -12 -3 3 -43 8 -90 12 -47 3 -92 8 -100 10 -8 2 -38 7 -66 10 -28 3
-61 8 -75 10 -13 3 -51 10 -84 16 -115 20 -409 106 -480 139 -11 5 -76 34
-143 64 -151 67 -302 154 -448 257 -139 99 -191 144 -335 290 -105 105 -287
332 -321 399 -7 14 -23 42 -36 63 -134 221 -249 558 -277 812 -4 33 -9 71 -11
85 -6 30 -5 322 1 365 2 17 7 55 10 85 52 462 293 939 659 1302 90 90 98 100
91 125 -5 16 -9 33 -10 38 -2 6 -49 177 -105 380 -56 204 -103 378 -105 389
-6 26 -7 26 -35 8z"/>
<path d="M1980 4948 c0 -7 16 -69 35 -138 19 -69 60 -215 91 -325 31 -110 58
-209 61 -220 3 -11 9 -34 14 -51 l10 -31 687 0 c378 0 690 1 693 3 3 2 -9 54
-27 116 -36 128 -137 490 -163 588 l-17 65 -692 3 c-546 2 -692 0 -692 -10z"/>
<path d="M2264 3938 c-4 -7 2 -34 41 -173 64 -228 87 -312 90 -325 6 -26 185
-670 205 -740 14 -47 151 -542 154 -555 2 -5 8 -30 15 -55 7 -25 14 -52 16
-61 2 -9 12 -47 24 -85 18 -62 173 -620 221 -799 11 -38 30 -106 42 -150 l23
-80 688 0 c379 0 690 2 692 6 2 3 -2 28 -10 55 -8 27 -62 222 -120 434 -58
212 -112 408 -120 435 -34 116 -86 303 -90 321 -2 10 -58 215 -125 454 -67
239 -123 442 -125 450 -2 8 -22 80 -44 160 -22 80 -76 273 -119 429 l-79 284
-687 1 c-378 1 -690 -2 -692 -6z"/>
</g>
</svg>
