<svg width="20" height="14" fill="none" xmlns="http://www.w3.org/2000/svg"><path d="M17.364 1H2.636c-.434 0-.85.168-1.157.466C1.172 1.764 1 2.169 1 2.59v8.75c0 .421.172.826.48 1.124a1.66 1.66 0 0 0 1.156.466h9.546a.553.553 0 0 0 .386-.155.523.523 0 0 0 0-.75.554.554 0 0 0-.386-.155H2.636a.554.554 0 0 1-.385-.156.523.523 0 0 1-.16-.375V4.712h15.818v6.628c0 .141-.057.276-.16.375a.554.554 0 0 1-.385.156h-2.728a.554.554 0 0 0-.385.155.523.523 0 0 0 0 .75c.102.1.24.155.385.155h2.728c.434 0 .85-.167 1.157-.466.307-.298.479-.703.479-1.125V2.59c0-.421-.172-.826-.48-1.124A1.66 1.66 0 0 0 17.365 1zM2.09 3.651v-1.06c0-.14.057-.276.16-.375a.553.553 0 0 1 .385-.155h14.728c.144 0 .283.055.385.155.103.1.16.234.16.375v1.06H2.091z" fill="#E98B48" stroke="#E98B48" stroke-width=".6"/></svg>