<svg width="19" height="19" fill="none" xmlns="http://www.w3.org/2000/svg"><path fill-rule="evenodd" clip-rule="evenodd" d="M16.05 12.083c-1.104-.404-2.736-1.294-3.807-.354l-1.099.93a17.194 17.194 0 0 1-2.716-2.21l-.086-.088a16.31 16.31 0 0 1-2.094-2.597l.908-1.08c.971-1.073.074-2.716-.333-3.829C6.103.887 5.905-.09 3.547.007c-.689-.029-1.372.302-1.84.796-4.058 4.267-.021 9.769 3.211 13.029 1.011 1.01 2.24-.195 1.22-1.214-2.002-2.02-4.464-4.964-4.396-7.986.018-.826.62-2.64 1.611-2.887l.098-.02.148.003c.303-.018.65-.028.94.051.185.245 1.372 3.543 1.354 3.709L4.91 6.679c-.3.355-.456.815-.397 1.28.048.385.22.631.22.631a17.334 17.334 0 0 0 2.383 2.98l.174.174c.739.736 1.493 1.34 2.062 1.76.58.43.975.675.975.675.593.38 1.38.253 1.898-.185l1.138-.959c.394-.042 3.358 1.083 3.797 1.414.052.505.017.857.017.857l.002.147-.02.098a.818.818 0 0 1-.244.4c-4.194 3.988-7.672-2.99-10.886.226-.812.812.404 2.03 1.216 1.218.508-.508 1.161-.594 2.295.12 1.476.928 2.984 1.408 4.772 1.368 1.729-.039 4.673-1.402 4.586-3.526.096-2.356-.88-2.555-2.848-3.274zM4.336 16.87a1.065 1.065 0 1 0 0 2.13 1.065 1.065 0 0 0 0-2.13z" fill="#E98B48"/></svg>