<svg width="22" height="19" fill="none" xmlns="http://www.w3.org/2000/svg"><path d="M11 16.04a.693.693 0 0 0 .582-.312c.504-.778 4.918-7.682 4.918-10.381C16.5 2.399 14.033 0 11 0 7.968 0 5.5 2.399 5.5 5.347c0 2.699 4.414 9.603 4.918 10.38a.693.693 0 0 0 .582.314zm0-14.703c2.275 0 4.125 1.798 4.125 4.01 0 1.714-2.597 6.274-4.125 8.747C9.472 11.62 6.875 7.06 6.875 5.347c0-2.212 1.85-4.01 4.125-4.01zm2.75 4.01c0-1.475-1.233-2.674-2.75-2.674s-2.75 1.2-2.75 2.674S9.483 8.02 11 8.02s2.75-1.199 2.75-2.673zm-4.125 0c0-.737.617-1.337 1.375-1.337s1.375.6 1.375 1.337S11.758 6.684 11 6.684s-1.375-.6-1.375-1.337zm12.289 13.022a.691.691 0 0 1-.602.345H.688a.69.69 0 0 1-.602-.345.654.654 0 0 1 .018-.678l3.437-5.347a.696.696 0 0 1 .584-.314h2.75c.38 0 .688.3.688.669 0 .37-.308.668-.688.668H4.506l-2.578 4.01H20.07l-2.578-4.01h-2.368a.677.677 0 0 1-.688-.668c0-.37.308-.669.688-.669h2.75c.237 0 .457.12.583.315l3.437 5.346c.133.206.14.466.019.678z" fill="#E98B48"/></svg>