<svg width="18" height="19" fill="none" xmlns="http://www.w3.org/2000/svg"><path d="M16.349 3.25c.112-.026.247-.026.36-.052a1.35 1.35 0 0 0 .584-.393c.045-.053.09-.079.135-.131.135-.131.225-.315.27-.498.09-.184.112-.394.112-.603 0-.393-.157-.84-.405-1.101C17.158.21 16.821 0 16.461 0c-.112.026-.247.026-.36.052a1.35 1.35 0 0 0-.584.394c-.045.052-.09.078-.135.13a1.048 1.048 0 0 0-.27.499c-.09.183-.112.393-.112.603 0 .393.157.838.405 1.1.247.289.584.498.944.472zM13.1 3.453c-2.878 3.302-5.306 7.05-7.958 10.59a169.26 169.26 0 0 1-2.923-4.22c-1.056-1.6-2.967.654-1.91 2.227 1.258 1.861 2.517 3.696 3.844 5.505.45.628 1.438.576 1.91 0 3.035-3.906 5.71-8.178 8.947-11.874 1.26-1.416-.652-3.644-1.91-2.228z" fill="#fff"/></svg>