<svg width="195" height="47" fill="none" xmlns="http://www.w3.org/2000/svg"><circle cx="5.362" cy="41.106" r="5.362" fill="#E4A1E2"/><path fill-rule="evenodd" clip-rule="evenodd" d="M42 31.276C42 14.003 27.997 0 10.724 0v31.276H42z" fill="#323A90"/><path fill-rule="evenodd" clip-rule="evenodd" d="M28.596 31.277c0-9.87-8.002-17.872-17.872-17.873v17.873h17.872z" fill="#60D4FA"/><path d="M64.803 14.431h-2.068V12.32h2.068v2.112zm.044 12.54h-2.09V16.235h2.09v10.736zM83.335 22.241l2.332.484c-1.496 3.095-4.502 4.642-9.02 4.642-1.804 0-3.402-.293-4.796-.88a7.625 7.625 0 0 1-3.366-2.794c-.836-1.276-1.254-2.808-1.254-4.598 0-2.449.836-4.414 2.508-5.896 1.672-1.481 3.96-2.222 6.864-2.222 4.18 0 7.092 1.504 8.734 4.51l-2.354.506a5.076 5.076 0 0 0-2.552-2.332c-1.114-.498-2.361-.748-3.74-.748-.718 0-1.408.066-2.068.198-.66.118-1.305.33-1.936.638a6.119 6.119 0 0 0-1.606 1.144c-.454.455-.821 1.042-1.1 1.76-.278.719-.418 1.526-.418 2.42 0 2.083.682 3.667 2.046 4.752 1.364 1.071 3.146 1.606 5.346 1.606 3.124 0 5.251-1.063 6.38-3.19zM100.899 26.971c-1.026.074-1.642.11-1.848.11-.425 0-.785-.051-1.078-.154-.278-.102-.484-.256-.616-.462-.132-.22-.22-.41-.264-.572a4.324 4.324 0 0 1-.11-.638c-.25.514-.814.998-1.694 1.452-.88.44-2.038.66-3.476.66-.968 0-1.804-.117-2.508-.352-.69-.234-1.21-.55-1.562-.946a4.571 4.571 0 0 1-.748-1.166 3.519 3.519 0 0 1-.22-1.232c0-.806.198-1.437.594-1.892.41-.469.844-.799 1.298-.99.748-.337 2.493-.506 5.236-.506h3.058v-.264c0-.44-.022-.77-.066-.99-.044-.22-.168-.476-.374-.77-.205-.293-.564-.506-1.078-.638-.513-.132-1.195-.198-2.046-.198-2.156 0-3.425.47-3.806 1.408l-2.112-.198c.088-.352.25-.704.484-1.056.763-1.114 2.538-1.672 5.324-1.672 1.159 0 2.178.11 3.058.33.954.22 1.636.609 2.046 1.166.352.47.528 1.218.528 2.244v4.29c0 .631.074 1.064.22 1.298.162.235.492.352.99.352l.77-.066v1.452zm-3.916-5.082h-3.938c-.557 0-.983.008-1.276.022-.279 0-.638.03-1.078.088-.44.059-.77.147-.99.264-.22.118-.418.294-.594.528-.161.235-.242.521-.242.858 0 .572.264 1.071.792 1.496.543.411 1.313.616 2.31.616.88 0 1.76-.146 2.64-.44a3.492 3.492 0 0 0 1.98-1.672c.206-.396.337-.982.396-1.76zM101.05 25.123l1.804-1.188c.381.308.748.558 1.1.748 1.188.616 2.625.924 4.312.924 1.129 0 2.046-.146 2.75-.44.718-.293 1.078-.726 1.078-1.298 0-.425-.228-.755-.682-.99-.279-.146-.668-.256-1.166-.33-.484-.073-1.203-.139-2.156-.198a84.705 84.705 0 0 1-2.266-.198c-1.247-.146-2.164-.432-2.75-.858-.675-.498-1.012-1.188-1.012-2.068 0-1.173.572-2.053 1.716-2.64.997-.513 2.412-.77 4.246-.77 1.921 0 3.564.36 4.928 1.078.586.323 1.026.631 1.32.924l-1.826 1.012c-1.218-.836-2.743-1.254-4.576-1.254-1.438 0-2.45.213-3.036.638-.308.235-.462.514-.462.836 0 .367.176.646.528.836.146.088.33.162.55.22.234.059.542.118.924.176.381.044.711.081.99.11.293.015.718.044 1.276.088.572.044 1.004.081 1.298.11 1.496.118 2.537.367 3.124.748.836.558 1.254 1.357 1.254 2.398 0 .558-.118 1.049-.352 1.474-.807 1.438-2.662 2.156-5.566 2.156-3.212 0-5.662-.748-7.348-2.244zM129.173 26.971h-2.09v-5.5c0-.88-.095-1.547-.286-2.002-.264-.616-.733-1.07-1.408-1.364a5.399 5.399 0 0 0-2.178-.44c-.264 0-.55.022-.858.066-.293.044-.674.14-1.144.286-.469.132-.931.374-1.386.726-.44.338-.814.763-1.122 1.276v6.952h-2.09V11.44h2.112v5.962c.543-.366.954-.623 1.232-.77.294-.161.756-.322 1.386-.484.646-.161 1.379-.242 2.2-.242 1.467 0 2.633.279 3.498.836.866.558 1.46 1.225 1.782 2.002.235.543.352 1.328.352 2.354v5.874zM134.297 26.971h-2.068V11.44h2.068v15.532zM150.629 21.647c0 1.614-.623 2.963-1.87 4.048-1.247 1.071-2.948 1.606-5.104 1.606-2.068 0-3.762-.491-5.082-1.474-1.305-.997-1.958-2.332-1.958-4.004 0-1.041.22-1.958.66-2.75.455-.792 1.041-1.4 1.76-1.826a8.455 8.455 0 0 1 2.222-.968 9.1 9.1 0 0 1 2.332-.308c.895 0 1.738.103 2.53.308a8 8 0 0 1 2.244.946c.689.426 1.239 1.02 1.65 1.782.411.763.616 1.643.616 2.64zm-2.09-.044c0-.924-.279-1.694-.836-2.31-.543-.616-1.173-1.034-1.892-1.254a7.254 7.254 0 0 0-2.266-.352c-1.291 0-2.42.36-3.388 1.078-.953.704-1.43 1.68-1.43 2.926 0 1.13.462 2.061 1.386 2.794.924.719 2.141 1.078 3.652 1.078 1.217 0 2.317-.33 3.3-.99.983-.674 1.474-1.664 1.474-2.97zM166.224 26.971c-1.026.074-1.642.11-1.848.11-.425 0-.784-.051-1.078-.154-.278-.102-.484-.256-.616-.462-.132-.22-.22-.41-.264-.572a4.419 4.419 0 0 1-.11-.638c-.249.514-.814.998-1.694 1.452-.88.44-2.038.66-3.476.66-.968 0-1.804-.117-2.508-.352-.689-.234-1.21-.55-1.562-.946a4.601 4.601 0 0 1-.748-1.166 3.535 3.535 0 0 1-.22-1.232c0-.806.198-1.437.594-1.892.411-.469.844-.799 1.298-.99.748-.337 2.494-.506 5.236-.506h3.058v-.264c0-.44-.022-.77-.066-.99-.044-.22-.168-.476-.374-.77-.205-.293-.564-.506-1.078-.638-.513-.132-1.195-.198-2.046-.198-2.156 0-3.424.47-3.806 1.408l-2.112-.198c.088-.352.25-.704.484-1.056.763-1.114 2.538-1.672 5.324-1.672 1.159 0 2.178.11 3.058.33.954.22 1.636.609 2.046 1.166.352.47.528 1.218.528 2.244v4.29c0 .631.074 1.064.22 1.298.162.235.492.352.99.352l.77-.066v1.452zm-3.916-5.082h-3.938c-.557 0-.982.008-1.276.022-.278 0-.638.03-1.078.088-.44.059-.77.147-.99.264-.22.118-.418.294-.594.528-.161.235-.242.521-.242.858 0 .572.264 1.071.792 1.496.543.411 1.313.616 2.31.616.88 0 1.76-.146 2.64-.44a3.492 3.492 0 0 0 1.98-1.672c.206-.396.338-.982.396-1.76zM180.257 26.971h-2.068v-5.676c0-.748-.096-1.334-.286-1.76-.528-1.217-1.76-1.826-3.696-1.826-.91 0-1.753.176-2.53.528-.763.352-1.306.932-1.628 1.738-.176.455-.264 1.086-.264 1.892v5.104h-2.09V16.235h2.09v1.298c.586-.484 1.129-.828 1.628-1.034.924-.381 1.98-.572 3.168-.572 1.305 0 2.427.242 3.366.726.953.484 1.606 1.137 1.958 1.958.234.558.352 1.408.352 2.552v5.808zM187.842 29.383v-2.16c-2.796-.108-4.752-1.068-5.868-2.88l1.728-.648c.432.648 1.026 1.134 1.782 1.458.768.324 1.56.51 2.376.558v-4.59c-1.872-.132-3.174-.438-3.906-.918-.864-.588-1.296-1.392-1.296-2.412 0-1.26.546-2.22 1.638-2.88a4.944 4.944 0 0 1 1.566-.612c.54-.108 1.206-.192 1.998-.252v-1.746h1.422v1.782c2.52.12 4.284.936 5.292 2.448l-1.71.648c-.78-.972-1.974-1.524-3.582-1.656v4.05l1.152.09c.864.072 1.614.222 2.25.45a3.18 3.18 0 0 1 1.566 1.152c.42.576.63 1.242.63 1.998 0 1.404-.618 2.466-1.854 3.186a4.898 4.898 0 0 1-1.278.504 8.104 8.104 0 0 1-1.188.198c-.312.036-.756.066-1.332.09v2.142h-1.386zm.018-9.9v-4.05c-2.316.18-3.474.882-3.474 2.106 0 .408.12.744.36 1.008.264.288.624.498 1.08.63.456.12 1.134.222 2.034.306zm1.404 1.71v4.554a8.3 8.3 0 0 0 1.098-.072c.372-.06.786-.162 1.242-.306.468-.156.84-.408 1.116-.756.288-.348.432-.774.432-1.278 0-.528-.156-.942-.468-1.242-.276-.276-.672-.474-1.188-.594-.504-.12-1.248-.222-2.232-.306z" fill="#323A90"/></svg>